<svg xmlns="http://www.w3.org/2000/svg" viewBox="0 0 64 64" width="64" height="64">
  <!-- Fork (left, with gap to triangle) -->
  <g transform="translate(2, 10)">
    <!-- Tines -->
    <rect x="1" y="0" width="1.8" height="16" rx="0.9" fill="#333"/>
    <rect x="4.6" y="0" width="1.8" height="16" rx="0.9" fill="#333"/>
    <rect x="8.2" y="0" width="1.8" height="16" rx="0.9" fill="#333"/>
    <!-- Connector -->
    <rect x="1" y="14" width="9" height="3.5" rx="1.5" fill="#333"/>
    <!-- Handle -->
    <rect x="3.5" y="16.5" width="4" height="24" rx="2" fill="#333"/>
  </g>

  <!-- Triangle (center, equilateral aspect ratio ~1:0.866) -->
  <!-- Equilateral: base=28, height=24.25 => keeps proper ratio -->
  <polygon points="32,8 47,48 17,48" fill="none" stroke="#333" stroke-width="4" stroke-linejoin="round"/>

  <!-- Knife (right, with gap to triangle) -->
  <g transform="translate(50, 10)">
    <!-- Blade (slight curve) -->
    <path d="M3,0 C3,0 3,0 3,0 L3,17 L10,14 C10,6 7,0 3,0 Z" fill="#333"/>
    <!-- Spine -->
    <rect x="1.5" y="0" width="2" height="18" rx="1" fill="#333"/>
    <!-- Bolster -->
    <rect x="1.5" y="16.5" width="8.5" height="3.5" rx="1.2" fill="#333"/>
    <!-- Handle -->
    <rect x="3.5" y="19" width="4" height="22" rx="2" fill="#333"/>
  </g>
</svg>
